<svg width="512" height="512" xmlns="http://www.w3.org/2000/svg">

 <g>
  <title>background</title>
  <rect fill="none" id="canvas_background" height="402" width="582" y="-1" x="-1"/>
 </g>
 <g>
  <title>Layer 1</title>
  <path fill="#666666" stroke="#b2b2b2" id="XMLID_3768_" d="m15.2,506l100.3,0l0,-380.8l-100.3,0l0,380.8zm91.5,-20.7l-38.5,0l0,-339.4l38.5,0l0,339.4zm-82.7,-339.4l38.5,0l0,339.4l-38.5,0l0,-339.4z"/>
  <path fill="#666666" stroke="#b2b2b2" id="XMLID_3810_" d="m396.5,125.2l0,380.8l100.3,0l0,-380.8l-100.3,0zm8.8,20.7l38.5,0l0,339.4l-38.5,0l0,-339.4zm82.7,339.4l-38.5,0l0,-339.4l38.5,0l0,339.4z"/>
  <path fill="#666666" stroke="#b2b2b2" id="XMLID_3814_" d="m357.169409,132.2l-38.9,0l0,-126.2l-126.8,0l0,126.2l-34.5,0l0,146.9l-37.7,0l0,226.1l271.2,0l0,-226.1l-33.2,0l0,-146.9l-0.1,0zm-43.4,4.8l38.1,0l0,41l-38.1,0l0,-41zm0,49l38.1,0l0,41l-38.1,0l0,-41zm0,49.1l38.1,0l0,41l-38.1,0l0,-41zm-62.1,-49.1l0,41l-38.1,0l0,-41l38.1,0zm-38.2,-8.1l0,-41l38.1,0l0,41l-38.1,0zm38.2,57.2l0,41l-38.1,0l0,-41l38.1,0zm-15.7,102.8l38.1,0l0,41l-38.1,0l0,-41zm0,-8l0,-41l38.1,0l0,41l-38.1,0zm27.6,-53.8l0,-41l38.1,0l0,41l-38.1,0zm38.2,-90.1l0,41l-38.1,0l0,-41l38.1,0zm-38.2,-8.1l0,-41l38.1,0l0,41l-38.1,0zm24.8,111l38.1,0l0,41l-38.1,0l0,-41zm-32.4,-270.3l50.6,0l0,50.2l-50.6,0l0,-50.2zm0,53.6l50.6,0l0,50.2l-50.6,0l0,-50.2zm-54.1,-53.6l50.6,0l0,50.2l-50.6,0l0,-50.2zm0,53.6l50.6,0l0,50.2l-50.6,0l0,-50.2zm-38.5,64.8l38.1,0l0,41l-38.1,0l0,-41zm0,49l38.1,0l0,41l-38.1,0l0,-41zm0,49.1l38.1,0l0,41l-38.1,0l0,-41zm-32.2,53.8l38.1,0l0,41l-38.1,0l0,-41zm0,49l38.1,0l0,41l-38.1,0l0,-41zm70.2,162.4l-4,0l0,-100.6l-61,0l0,100.6l-4,0l0,-104.5l68.9,0l0,104.5l0.1,0zm20.3,-121.4l-38.1,0l0,-41l38.1,0l0,41zm0,-49l-38.1,0l0,-41l38.1,0l0,41zm33.1,140.3l-25.5,0l0,-25.3l25.6,0l0,25.3l-0.1,0zm0,-27.1l-25.5,0l0,-25.3l25.6,0l0,25.3l-0.1,0zm27.3,27.1l-25.6,0l0,-25.3l25.6,0l0,25.3zm0,-27.1l-25.6,0l0,-25.3l25.6,0l0,25.3zm6.3,-105.2l38.1,0l0,41l-38.1,0l0,-41zm90.5,162.4l-4,0l0,-100.6l-61,0l0,100.6l-4,0l0,-104.5l68.9,0l0,104.5l0.1,0zm0,-121.4l-38.1,0l0,-41l38.1,0l0,41zm0,-90l0,41l-38.1,0l0,-41l38.1,0z"/>
 </g>
</svg>