<svg width="32" height="32" xmlns="http://www.w3.org/2000/svg">
 <title/>
 <desc/>

 <g>
  <title>background</title>
  <rect fill="none" id="canvas_background" height="402" width="582" y="-1" x="-1"/>
 </g>
 <g>
  <title>Layer 1</title>
  <path fill="#ffffff" id="cloud-sun-rain" d="m7.10101,15.10215c-1.7764,0.40959 -3.10101,2.00246 -3.10101,3.89785c0,2.20914 1.79794,4 4.00282,4l16.99436,0c2.2107,0 4.00282,-1.79536 4.00282,-4c0,-1.87744 -1.29856,-3.45278 -3.04188,-3.88353l0,0c0.02761,-0.20154 0.04188,-0.40734 0.04188,-0.61647c0,-2.48528 -2.01472,-4.5 -4.5,-4.5c-1.22554,0 -2.33666,0.48991 -3.14819,1.28458c-0.99094,-1.94917 -3.01543,-3.28458 -5.35181,-3.28458c-3.31371,0 -6,2.68629 -6,6c0,0.37649 0.03468,0.74488 0.10101,1.10215l0,0zm17.8524,-4.88304c0.03074,-0.23535 0.04659,-0.47538 0.04659,-0.71911c0,-3.03757 -2.46243,-5.5 -5.5,-5.5c-2.20281,0 -4.10316,1.29499 -4.98127,3.16521l0,0c-0.48899,-0.10818 -0.9972,-0.16521 -1.51873,-0.16521c-3.86599,0 -7,3.13401 -7,7c0,0.13815 0.004,0.27537 0.0119,0.41154c-1.77224,0.77007 -3.0119,2.53759 -3.0119,4.58846c0,2.76142 2.23249,5 4.99944,5l17.00112,0c2.76111,0 4.99944,-2.2442 4.99944,-5c0,-2.05166 -1.23235,-3.81471 -3.00065,-4.58547c-0.02582,-1.69486 -0.81827,-3.20381 -2.04594,-4.19542l0,0l0,0zm-0.95448,-0.61995c0.00071,-0.03297 0.00107,-0.06602 0.00107,-0.09916c0,-2.48528 -2.01472,-4.5 -4.5,-4.5c-1.74925,0 -3.26538,0.99808 -4.00998,2.45582c1.25342,0.47719 2.33435,1.30414 3.12352,2.36158c0.83903,-0.5183 1.82782,-0.8174 2.88646,-0.8174c0.8998,0 1.74912,0.21607 2.49893,0.59916l0,0l0,0zm-13.49893,15.40084c-0.27614,0 -0.5,0.21575 -0.5,0.49539l0,2.00922c0,0.2736 0.23193,0.49539 0.5,0.49539c0.27614,0 0.5,-0.21575 0.5,-0.49539l0,-2.00922c0,-0.2736 -0.23193,-0.49539 -0.5,-0.49539l0,0zm3,2c-0.27614,0 -0.5,0.21575 -0.5,0.49539l0,2.00922c0,0.2736 0.23193,0.49539 0.5,0.49539c0.27614,0 0.5,-0.21575 0.5,-0.49539l0,-2.00922c0,-0.2736 -0.23193,-0.49539 -0.5,-0.49539l0,0zm3,-2c-0.27614,0 -0.5,0.21575 -0.5,0.49539l0,2.00922c0,0.2736 0.23193,0.49539 0.5,0.49539c0.27614,0 0.5,-0.21575 0.5,-0.49539l0,-2.00922c0,-0.2736 -0.23193,-0.49539 -0.5,-0.49539l0,0zm3,2c-0.27614,0 -0.5,0.21575 -0.5,0.49539l0,2.00922c0,0.2736 0.23193,0.49539 0.5,0.49539c0.27614,0 0.5,-0.21575 0.5,-0.49539l0,-2.00922c0,-0.2736 -0.23193,-0.49539 -0.5,-0.49539l0,0zm3,-2c-0.27614,0 -0.5,0.21575 -0.5,0.49539l0,2.00922c0,0.2736 0.23193,0.49539 0.5,0.49539c0.27614,0 0.5,-0.21575 0.5,-0.49539l0,-2.00922c0,-0.2736 -0.23193,-0.49539 -0.5,-0.49539l0,0zm-3,-25c-0.27614,0 -0.5,0.21575 -0.5,0.49539l0,2.00922c0,0.2736 0.23193,0.49539 0.5,0.49539c0.27614,0 0.5,-0.21575 0.5,-0.49539l0,-2.00922c0,-0.2736 -0.23193,-0.49539 -0.5,-0.49539l0,0zm6.73305,2.78892c-0.19526,-0.19526 -0.50611,-0.20099 -0.70384,-0.00326l-1.42074,1.42074c-0.19346,0.19346 -0.18629,0.51429 0.00326,0.70384c0.19526,0.19526 0.50611,0.20099 0.70385,0.00326l1.42073,-1.42073c0.19346,-0.19346 0.18629,-0.5143 -0.00326,-0.70385l0,0zm2.78892,6.73305c0,-0.27614 -0.21575,-0.5 -0.49539,-0.5l-2.00922,0c-0.27359,0 -0.49539,0.23194 -0.49539,0.5c0,0.27615 0.21576,0.5 0.49539,0.5l2.00922,0c0.2736,0 0.49539,-0.23193 0.49539,-0.5l0,0zm-16.25502,-6.73305c-0.19526,0.19526 -0.20099,0.50611 -0.00326,0.70385l1.42073,1.42073c0.19346,0.19346 0.5143,0.18629 0.70385,-0.00326c0.19526,-0.19526 0.20099,-0.50611 0.00326,-0.70384l-1.42074,-1.42074c-0.19346,-0.19346 -0.51429,-0.18629 -0.70384,0.00326l0,0z"/>
 </g>
</svg>