<svg width="47.99999999999999" height="47.99999999999999" xmlns="http://www.w3.org/2000/svg">

 <g>
  <title>background</title>
  <rect fill="none" id="canvas_background" height="402" width="582" y="-1" x="-1"/>
 </g>
 <g>
  <title>Layer 1</title>
  <path fill="#666666" id="svg_1" fill-rule="evenodd" d="m44.9,32.971c0,0.011 0.006,0.019 0.006,0.029c0,0.005 -0.003,0.01 -0.003,0.016c0.001,0.005 0.003,0.01 0.003,0.016c0,0.552 -0.447,1 -1,1c0.015,-0.001 -8.906,-0.032 -8.906,-0.032c-0.553,0 -1,-0.448 -1,-1c0,-0.553 0.447,-1 1,-1l7.946,0c0.019,-0.334 0.054,-0.662 0.054,-1c0,-10.493 -8.507,-19 -19,-19s-19,8.507 -19,19c0,0.338 0.035,0.666 0.053,1l7.947,0c0.553,0 1,0.447 1,1c0,0.552 -0.447,1 -1,1c0,0 -8.92,0.031 -8.906,0.031c-0.553,0 -1,-0.448 -1,-1c0,-0.006 0.002,-0.011 0.003,-0.016c0,-0.006 -0.003,-0.011 -0.003,-0.016c0,-0.011 0.006,-0.019 0.006,-0.028c-0.061,-0.65 -0.1,-1.306 -0.1,-1.971c0,-11.599 9.402,-21 21,-21s21,9.401 21,21c0,0.665 -0.039,1.321 -0.1,1.971zm-27.377,-11.843c0.393,-0.216 0.865,-0.144 1.189,0.133l-0.05,-0.083c8.774,6.42 10.577,9.373 10.61,9.428c1.433,2.357 0.581,5.371 -1.899,6.731s-5.653,0.553 -7.085,-1.804c-0.035,-0.053 -1.824,-3.014 -3.291,-13.442l0.051,0.082c-0.089,-0.404 0.083,-0.83 0.475,-1.045zm4.563,13.421c0.555,0.911 1.589,1.478 2.699,1.478c0.542,0 1.079,-0.137 1.552,-0.397c0.72,-0.395 1.235,-1.031 1.45,-1.794c0.216,-0.764 0.105,-1.56 -0.303,-2.232c-0.017,-0.025 -1.572,-2.386 -8.062,-7.348c1.281,7.815 2.653,10.273 2.664,10.293z" clip-rule="evenodd"/>
 </g>
</svg>